<svg id="Capa_1" enable-background="new 0 0 512 512" height="512" viewBox="0 0 512 512" width="512" xmlns="http://www.w3.org/2000/svg" xmlns:xlink="http://www.w3.org/1999/xlink"><linearGradient id="SVGID_1_" gradientUnits="userSpaceOnUse" x1="293.8" x2="293.8" y1="512" y2="0"><stop offset="0" stop-color="#ffe59a"/><stop offset="1" stop-color="#ffffd5"/></linearGradient><linearGradient id="SVGID_2_" gradientUnits="userSpaceOnUse" x1="218.376" x2="218.376" y1="512" y2="0"><stop offset="0" stop-color="#fd5900"/><stop offset="1" stop-color="#ffde00"/></linearGradient><g><g><g><path d="m450.876 256c0-26.4 6.299-39 13.499-53.401 22.395-43.927 22.272-90.517 0-134.198-5.098-9.901-9.298-18.602-11.697-31.501-3.904-21.299-22.501-36.9-44.1-36.9h-32.102l-30 256 30 256h32.102c21.599 0 40.195-15.601 44.099-36.901 2.399-12.9 6.599-21.599 11.697-31.5 22.404-43.946 22.259-90.539 0-134.2-7.199-14.399-13.498-26.999-13.498-53.399zm-226.502-187.599c-5.098-9.901-9.298-18.602-11.697-31.501-3.903-21.299-22.5-36.9-44.099-36.9h-32.102l-30 256 30 256h32.102c21.599 0 40.195-15.601 44.099-36.901 2.399-12.9 6.599-21.599 11.697-31.5 22.404-43.946 22.259-90.539 0-134.2-18.359-36.718-18.343-70.11 0-106.8 22.395-43.927 22.272-90.516 0-134.198z" fill="url(#SVGID_1_)"/></g></g><g><g><path d="m136.476 0h-56.1c-30.781 0-53.003 30.428-42.601 59.7 2.703 8.101 6.299 15 9.602 21.899 18.343 36.69 18.359 71.082 0 107.8-7.8 15.3-16.501 33.001-16.501 66.601s8.701 51.299 16.501 66.599c18.343 36.69 18.359 71.082 0 107.8-3.303 6.901-6.899 13.801-9.602 21.901-10.273 28.906 11.275 59.7 42.601 59.7h56.1c-5.398-75.3 29.399-71.501 29.399-136 0-60-30-60-30-120s30-60 30-120c.001-64.501-34.797-60.7-29.399-136zm239.4 256c0-60 30-60 30-120 0-64.501-34.797-60.7-29.399-136h-56.1c-30.781 0-53.003 30.428-42.601 59.7 2.703 8.101 6.299 15 9.602 21.899 18.343 36.69 18.359 71.082 0 107.8-22.259 43.661-22.404 89.254 0 133.2 18.343 36.69 18.359 71.082 0 107.8-3.303 6.901-6.899 13.801-9.602 21.901-10.273 28.906 11.274 59.7 42.601 59.7h56.1c-5.398-75.3 29.399-71.501 29.399-136 0-60-30-60-30-120z" fill="url(#SVGID_2_)"/></g></g></g></svg>